<?xml version="1.0" encoding="UTF-8" standalone="no"?>
<!DOCTYPE svg PUBLIC "-//W3C//DTD SVG 1.1//EN"
 "http://www.w3.org/Graphics/SVG/1.1/DTD/svg11.dtd">
<!-- Generated by graphviz version 2.40.1 (20161225.0304)
 -->
<!-- Title: Tree Pages: 1 -->
<svg width="574pt" height="433pt"
 viewBox="0.00 0.00 573.50 433.00" xmlns="http://www.w3.org/2000/svg" xmlns:xlink="http://www.w3.org/1999/xlink">
<g id="graph0" class="graph" transform="scale(1 1) rotate(0) translate(4 429)">
<title>Tree</title>
<polygon fill="#ffffff" stroke="transparent" points="-4,4 -4,-429 569.5,-429 569.5,4 -4,4"/>
<!-- 0 -->
<g id="node1" class="node">
<title>0</title>
<path fill="#dafae7" stroke="#000000" d="M269,-425C269,-425 153,-425 153,-425 147,-425 141,-419 141,-413 141,-413 141,-354 141,-354 141,-348 147,-342 153,-342 153,-342 269,-342 269,-342 275,-342 281,-348 281,-354 281,-354 281,-413 281,-413 281,-419 275,-425 269,-425"/>
<text text-anchor="start" x="158.5" y="-409.8" font-family="Helvetica,sans-Serif" font-size="14.00" fill="#000000">petal width ≤ 0.8</text>
<text text-anchor="start" x="173" y="-394.8" font-family="Helvetica,sans-Serif" font-size="14.00" fill="#000000">gini = 0.655</text>
<text text-anchor="start" x="167" y="-379.8" font-family="Helvetica,sans-Serif" font-size="14.00" fill="#000000">samples = 45</text>
<text text-anchor="start" x="149" y="-364.8" font-family="Helvetica,sans-Serif" font-size="14.00" fill="#000000">value = [13, 19, 13]</text>
<text text-anchor="start" x="155" y="-349.8" font-family="Helvetica,sans-Serif" font-size="14.00" fill="#000000">class = versicolor</text>
</g>
<!-- 1 -->
<g id="node2" class="node">
<title>1</title>
<path fill="#e58139" stroke="#000000" d="M188.5,-298.5C188.5,-298.5 89.5,-298.5 89.5,-298.5 83.5,-298.5 77.5,-292.5 77.5,-286.5 77.5,-286.5 77.5,-242.5 77.5,-242.5 77.5,-236.5 83.5,-230.5 89.5,-230.5 89.5,-230.5 188.5,-230.5 188.5,-230.5 194.5,-230.5 200.5,-236.5 200.5,-242.5 200.5,-242.5 200.5,-286.5 200.5,-286.5 200.5,-292.5 194.5,-298.5 188.5,-298.5"/>
<text text-anchor="start" x="109.5" y="-283.3" font-family="Helvetica,sans-Serif" font-size="14.00" fill="#000000">gini = 0.0</text>
<text text-anchor="start" x="95" y="-268.3" font-family="Helvetica,sans-Serif" font-size="14.00" fill="#000000">samples = 13</text>
<text text-anchor="start" x="85.5" y="-253.3" font-family="Helvetica,sans-Serif" font-size="14.00" fill="#000000">value = [13, 0, 0]</text>
<text text-anchor="start" x="92" y="-238.3" font-family="Helvetica,sans-Serif" font-size="14.00" fill="#000000">class = setosa</text>
</g>
<!-- 0&#45;&gt;1 -->
<g id="edge1" class="edge">
<title>0&#45;&gt;1</title>
<path fill="none" stroke="#000000" d="M185.8179,-341.8796C179.0983,-330.7735 171.8243,-318.7513 165.0586,-307.5691"/>
<polygon fill="#000000" stroke="#000000" points="167.9332,-305.5589 159.762,-298.8149 161.9441,-309.1826 167.9332,-305.5589"/>
<text text-anchor="middle" x="153.7883" y="-319.3908" font-family="Helvetica,sans-Serif" font-size="14.00" fill="#000000">True</text>
</g>
<!-- 2 -->
<g id="node3" class="node">
<title>2</title>
<path fill="#c0f7d7" stroke="#000000" d="M337.5,-306C337.5,-306 230.5,-306 230.5,-306 224.5,-306 218.5,-300 218.5,-294 218.5,-294 218.5,-235 218.5,-235 218.5,-229 224.5,-223 230.5,-223 230.5,-223 337.5,-223 337.5,-223 343.5,-223 349.5,-229 349.5,-235 349.5,-235 349.5,-294 349.5,-294 349.5,-300 343.5,-306 337.5,-306"/>
<text text-anchor="start" x="231.5" y="-290.8" font-family="Helvetica,sans-Serif" font-size="14.00" fill="#000000">petal width ≤ 1.7</text>
<text text-anchor="start" x="246" y="-275.8" font-family="Helvetica,sans-Serif" font-size="14.00" fill="#000000">gini = 0.482</text>
<text text-anchor="start" x="240" y="-260.8" font-family="Helvetica,sans-Serif" font-size="14.00" fill="#000000">samples = 32</text>
<text text-anchor="start" x="226.5" y="-245.8" font-family="Helvetica,sans-Serif" font-size="14.00" fill="#000000">value = [0, 19, 13]</text>
<text text-anchor="start" x="228" y="-230.8" font-family="Helvetica,sans-Serif" font-size="14.00" fill="#000000">class = versicolor</text>
</g>
<!-- 0&#45;&gt;2 -->
<g id="edge2" class="edge">
<title>0&#45;&gt;2</title>
<path fill="none" stroke="#000000" d="M236.5319,-341.8796C241.891,-333.1434 247.5979,-323.8404 253.1282,-314.8253"/>
<polygon fill="#000000" stroke="#000000" points="256.1135,-316.6522 258.3592,-306.2981 250.1467,-312.9919 256.1135,-316.6522"/>
<text text-anchor="middle" x="264.1839" y="-326.9101" font-family="Helvetica,sans-Serif" font-size="14.00" fill="#000000">False</text>
</g>
<!-- 3 -->
<g id="node4" class="node">
<title>3</title>
<path fill="#44e688" stroke="#000000" d="M262.5,-187C262.5,-187 151.5,-187 151.5,-187 145.5,-187 139.5,-181 139.5,-175 139.5,-175 139.5,-116 139.5,-116 139.5,-110 145.5,-104 151.5,-104 151.5,-104 262.5,-104 262.5,-104 268.5,-104 274.5,-110 274.5,-116 274.5,-116 274.5,-175 274.5,-175 274.5,-181 268.5,-187 262.5,-187"/>
<text text-anchor="start" x="147.5" y="-171.8" font-family="Helvetica,sans-Serif" font-size="14.00" fill="#000000">petal length ≤ 5.05</text>
<text text-anchor="start" x="177.5" y="-156.8" font-family="Helvetica,sans-Serif" font-size="14.00" fill="#000000">gini = 0.1</text>
<text text-anchor="start" x="163" y="-141.8" font-family="Helvetica,sans-Serif" font-size="14.00" fill="#000000">samples = 19</text>
<text text-anchor="start" x="153.5" y="-126.8" font-family="Helvetica,sans-Serif" font-size="14.00" fill="#000000">value = [0, 18, 1]</text>
<text text-anchor="start" x="151" y="-111.8" font-family="Helvetica,sans-Serif" font-size="14.00" fill="#000000">class = versicolor</text>
</g>
<!-- 2&#45;&gt;3 -->
<g id="edge3" class="edge">
<title>2&#45;&gt;3</title>
<path fill="none" stroke="#000000" d="M257.0691,-222.8796C251.4163,-214.1434 245.3967,-204.8404 239.5634,-195.8253"/>
<polygon fill="#000000" stroke="#000000" points="242.4169,-193.7924 234.0458,-187.2981 236.5399,-197.5952 242.4169,-193.7924"/>
</g>
<!-- 6 -->
<g id="node7" class="node">
<title>6</title>
<path fill="#8c49e7" stroke="#000000" d="M419.5,-187C419.5,-187 304.5,-187 304.5,-187 298.5,-187 292.5,-181 292.5,-175 292.5,-175 292.5,-116 292.5,-116 292.5,-110 298.5,-104 304.5,-104 304.5,-104 419.5,-104 419.5,-104 425.5,-104 431.5,-110 431.5,-116 431.5,-116 431.5,-175 431.5,-175 431.5,-181 425.5,-187 419.5,-187"/>
<text text-anchor="start" x="300.5" y="-171.8" font-family="Helvetica,sans-Serif" font-size="14.00" fill="#000000">sepal length ≤ 5.95</text>
<text text-anchor="start" x="324" y="-156.8" font-family="Helvetica,sans-Serif" font-size="14.00" fill="#000000">gini = 0.142</text>
<text text-anchor="start" x="318" y="-141.8" font-family="Helvetica,sans-Serif" font-size="14.00" fill="#000000">samples = 13</text>
<text text-anchor="start" x="308.5" y="-126.8" font-family="Helvetica,sans-Serif" font-size="14.00" fill="#000000">value = [0, 1, 12]</text>
<text text-anchor="start" x="310.5" y="-111.8" font-family="Helvetica,sans-Serif" font-size="14.00" fill="#000000">class = virginica</text>
</g>
<!-- 2&#45;&gt;6 -->
<g id="edge6" class="edge">
<title>2&#45;&gt;6</title>
<path fill="none" stroke="#000000" d="M311.2806,-222.8796C317.0068,-214.1434 323.1046,-204.8404 329.0137,-195.8253"/>
<polygon fill="#000000" stroke="#000000" points="332.0482,-197.5803 334.6029,-187.2981 326.1937,-193.7429 332.0482,-197.5803"/>
</g>
<!-- 4 -->
<g id="node5" class="node">
<title>4</title>
<path fill="#39e581" stroke="#000000" d="M116,-68C116,-68 12,-68 12,-68 6,-68 0,-62 0,-56 0,-56 0,-12 0,-12 0,-6 6,0 12,0 12,0 116,0 116,0 122,0 128,-6 128,-12 128,-12 128,-56 128,-56 128,-62 122,-68 116,-68"/>
<text text-anchor="start" x="34.5" y="-52.8" font-family="Helvetica,sans-Serif" font-size="14.00" fill="#000000">gini = 0.0</text>
<text text-anchor="start" x="20" y="-37.8" font-family="Helvetica,sans-Serif" font-size="14.00" fill="#000000">samples = 14</text>
<text text-anchor="start" x="10.5" y="-22.8" font-family="Helvetica,sans-Serif" font-size="14.00" fill="#000000">value = [0, 14, 0]</text>
<text text-anchor="start" x="8" y="-7.8" font-family="Helvetica,sans-Serif" font-size="14.00" fill="#000000">class = versicolor</text>
</g>
<!-- 3&#45;&gt;4 -->
<g id="edge4" class="edge">
<title>3&#45;&gt;4</title>
<path fill="none" stroke="#000000" d="M153.7521,-103.9815C141.3756,-94.3313 128.2172,-84.0714 115.8997,-74.4673"/>
<polygon fill="#000000" stroke="#000000" points="117.9818,-71.6525 107.9435,-68.2637 113.6775,-77.1728 117.9818,-71.6525"/>
</g>
<!-- 5 -->
<g id="node6" class="node">
<title>5</title>
<path fill="#6aeca0" stroke="#000000" d="M262,-68C262,-68 158,-68 158,-68 152,-68 146,-62 146,-56 146,-56 146,-12 146,-12 146,-6 152,0 158,0 158,0 262,0 262,0 268,0 274,-6 274,-12 274,-12 274,-56 274,-56 274,-62 268,-68 262,-68"/>
<text text-anchor="start" x="176.5" y="-52.8" font-family="Helvetica,sans-Serif" font-size="14.00" fill="#000000">gini = 0.32</text>
<text text-anchor="start" x="170.5" y="-37.8" font-family="Helvetica,sans-Serif" font-size="14.00" fill="#000000">samples = 5</text>
<text text-anchor="start" x="160.5" y="-22.8" font-family="Helvetica,sans-Serif" font-size="14.00" fill="#000000">value = [0, 4, 1]</text>
<text text-anchor="start" x="154" y="-7.8" font-family="Helvetica,sans-Serif" font-size="14.00" fill="#000000">class = versicolor</text>
</g>
<!-- 3&#45;&gt;5 -->
<g id="edge5" class="edge">
<title>3&#45;&gt;5</title>
<path fill="none" stroke="#000000" d="M208.1171,-103.9815C208.3421,-95.618 208.5795,-86.7965 208.807,-78.3409"/>
<polygon fill="#000000" stroke="#000000" points="212.3078,-78.3542 209.0781,-68.2637 205.3103,-78.1659 212.3078,-78.3542"/>
</g>
<!-- 7 -->
<g id="node8" class="node">
<title>7</title>
<path fill="#ffffff" stroke="#000000" d="M412,-68C412,-68 308,-68 308,-68 302,-68 296,-62 296,-56 296,-56 296,-12 296,-12 296,-6 302,0 308,0 308,0 412,0 412,0 418,0 424,-6 424,-12 424,-12 424,-56 424,-56 424,-62 418,-68 412,-68"/>
<text text-anchor="start" x="330.5" y="-52.8" font-family="Helvetica,sans-Serif" font-size="14.00" fill="#000000">gini = 0.5</text>
<text text-anchor="start" x="320.5" y="-37.8" font-family="Helvetica,sans-Serif" font-size="14.00" fill="#000000">samples = 2</text>
<text text-anchor="start" x="310.5" y="-22.8" font-family="Helvetica,sans-Serif" font-size="14.00" fill="#000000">value = [0, 1, 1]</text>
<text text-anchor="start" x="304" y="-7.8" font-family="Helvetica,sans-Serif" font-size="14.00" fill="#000000">class = versicolor</text>
</g>
<!-- 6&#45;&gt;7 -->
<g id="edge7" class="edge">
<title>6&#45;&gt;7</title>
<path fill="none" stroke="#000000" d="M361.2553,-103.9815C361.1053,-95.618 360.947,-86.7965 360.7954,-78.3409"/>
<polygon fill="#000000" stroke="#000000" points="364.2935,-78.1993 360.6146,-68.2637 357.2946,-78.3249 364.2935,-78.1993"/>
</g>
<!-- 8 -->
<g id="node9" class="node">
<title>8</title>
<path fill="#8139e5" stroke="#000000" d="M553.5,-68C553.5,-68 454.5,-68 454.5,-68 448.5,-68 442.5,-62 442.5,-56 442.5,-56 442.5,-12 442.5,-12 442.5,-6 448.5,0 454.5,0 454.5,0 553.5,0 553.5,0 559.5,0 565.5,-6 565.5,-12 565.5,-12 565.5,-56 565.5,-56 565.5,-62 559.5,-68 553.5,-68"/>
<text text-anchor="start" x="474.5" y="-52.8" font-family="Helvetica,sans-Serif" font-size="14.00" fill="#000000">gini = 0.0</text>
<text text-anchor="start" x="460" y="-37.8" font-family="Helvetica,sans-Serif" font-size="14.00" fill="#000000">samples = 11</text>
<text text-anchor="start" x="450.5" y="-22.8" font-family="Helvetica,sans-Serif" font-size="14.00" fill="#000000">value = [0, 0, 11]</text>
<text text-anchor="start" x="452.5" y="-7.8" font-family="Helvetica,sans-Serif" font-size="14.00" fill="#000000">class = virginica</text>
</g>
<!-- 6&#45;&gt;8 -->
<g id="edge8" class="edge">
<title>6&#45;&gt;8</title>
<path fill="none" stroke="#000000" d="M414.8756,-103.9815C427.1655,-94.3313 440.2319,-84.0714 452.4632,-74.4673"/>
<polygon fill="#000000" stroke="#000000" points="454.6602,-77.1923 460.3638,-68.2637 450.3371,-71.6867 454.6602,-77.1923"/>
</g>
</g>
</svg>
